<?xml version="1.0" standalone="no"?>
<!DOCTYPE svg PUBLIC "-//W3C//DTD SVG 20010904//EN"
 "http://www.w3.org/TR/2001/REC-SVG-20010904/DTD/svg10.dtd">
<svg version="1.0" xmlns="http://www.w3.org/2000/svg"
 width="236px" height="247px" viewBox="0 0 217.000000 259.000000"
 preserveAspectRatio="xMidYMid meet">

<g transform="translate(0.000000,259.000000) scale(0.100000,-0.100000)"
fill="#000000" stroke="none">
<path d="M400 2163 c-36 -13 -40 -34 -40 -209 l0 -173 95 -88 95 -88 0 -480 0
-480 -75 -85 -75 -85 0 -87 0 -87 -27 -3 c-38 -4 -53 -39 -53 -121 0 -59 3
-71 25 -92 l24 -25 761 0 761 0 24 25 c22 21 25 33 25 97 0 83 -16 118 -56
118 -24 0 -24 1 -24 88 l0 87 -75 85 -75 85 0 478 0 478 95 91 95 90 0 172 c0
133 -3 177 -14 192 -13 17 -27 19 -168 19 l-153 0 -3 -87 -3 -87 -65 -21 -65
-22 -59 22 -59 22 -3 87 -3 86 -175 0 -175 0 -3 -87 -3 -87 -57 -21 -57 -22
-67 21 -67 22 -3 87 -3 87 -140 2 c-77 1 -147 -1 -155 -4z m1460 -373 c0 -7
-247 -10 -720 -10 -473 0 -720 3 -720 10 0 7 247 10 720 10 473 0 720 -3 720
-10z m-202 -182 c-4 -10 -119 -13 -533 -13 -414 0 -529 3 -532 13 -4 9 107 12
532 12 425 0 536 -3 533 -12z m-11 -970 c-6 -19 -1048 -19 -1054 0 -4 9 106
12 527 12 421 0 531 -3 527 -12z m143 -163 c0 -13 -81 -15 -665 -15 -584 0
-665 2 -665 15 0 13 81 15 665 15 584 0 665 -2 665 -15z m10 -185 c0 -7 -232
-10 -675 -10 -443 0 -675 3 -675 10 0 7 232 10 675 10 443 0 675 -3 675 -10z"/>
</g>
</svg>
