<?xml version="1.0" encoding="UTF-8"?>
<!DOCTYPE svg PUBLIC "-//W3C//DTD SVG 1.1//EN" "http://www.w3.org/Graphics/SVG/1.1/DTD/svg11.dtd">
<svg xmlns="http://www.w3.org/2000/svg" version="1.1" width="246px" height="267px" style="shape-rendering:geometricPrecision; text-rendering:geometricPrecision; image-rendering:optimizeQuality; fill-rule:evenodd; clip-rule:evenodd" xmlns:xlink="http://www.w3.org/1999/xlink">
<g><path style="opacity:0.951" fill="#252523" d="M 245.5,211.5 C 245.5,213.833 245.5,216.167 245.5,218.5C 240.741,216.227 235.741,215.394 230.5,216C 222.796,219.074 214.796,220.741 206.5,221C 195.236,226.275 183.403,229.108 171,229.5C 165.787,229.454 160.62,228.954 155.5,228C 147.291,225.646 139.124,223.146 131,220.5C 122.967,223.399 114.801,225.899 106.5,228C 96.4941,229.966 86.4941,229.966 76.5,228C 69.4055,225.953 62.4055,223.62 55.5,221C 46.0751,220.448 36.9084,218.615 28,215.5C 23.1403,216.179 18.6403,217.846 14.5,220.5C 11.8501,219.543 11.1834,217.876 12.5,215.5C 21.7127,206.225 32.7127,200.058 45.5,197C 51.2247,196.283 56.8913,196.616 62.5,198C 69.6382,200.656 76.8048,203.156 84,205.5C 84.881,197.284 86.0476,189.118 87.5,181C 54.4929,137.307 52.9929,92.474 83,46.5C 88.6843,37.1455 96.5176,30.3122 106.5,26C 103.184,19.859 104.184,14.5257 109.5,10C 124.333,7.00245 129.666,12.8358 125.5,27.5C 128.199,27.5339 130.699,26.8672 133,25.5C 131.358,11.8062 137.191,6.63955 150.5,10C 156.195,15.1533 156.862,20.8199 152.5,27C 167.192,36.533 178.025,49.3663 185,65.5C 199.948,95.2601 199.948,124.927 185,154.5C 179.667,162.5 174.333,170.5 169,178.5C 169.593,187.492 170.426,196.492 171.5,205.5C 180.211,204.876 188.545,202.709 196.5,199C 205.857,195.774 215.191,195.774 224.5,199C 231.909,202.597 238.909,206.763 245.5,211.5 Z"/></g>
<g><path style="opacity:1" fill="#f8f8f8" d="M 112.5,13.5 C 119.827,12.3293 122.994,15.3293 122,22.5C 118.294,27.2676 114.294,27.601 110,23.5C 108.863,19.5369 109.697,16.2036 112.5,13.5 Z"/></g>
<g><path style="opacity:1" fill="#f8f8f8" d="M 140.5,13.5 C 149.745,12.8991 152.411,16.7324 148.5,25C 142.35,27.9252 138.683,26.0919 137.5,19.5C 137.628,17.0452 138.628,15.0452 140.5,13.5 Z"/></g>
<g><path style="opacity:1" fill="#fcfcfc" d="M 108.5,29.5 C 119.397,28.9657 129.064,32.1324 137.5,39C 169.476,68.5858 182.643,105.086 177,148.5C 175.428,155.638 172.762,162.304 169,168.5C 165.09,164.792 160.59,161.958 155.5,160C 136.813,154.033 118.146,154.033 99.5,160C 94.3867,162.306 89.8867,165.472 86,169.5C 63.9213,139.431 59.9213,107.097 74,72.5C 79.8157,58.6972 87.9824,46.5305 98.5,36C 101.728,33.5603 105.061,31.3936 108.5,29.5 Z"/></g>
<g><path style="opacity:1" fill="#f6f6f6" d="M 134.5,29.5 C 144.656,28.0337 153.322,30.867 160.5,38C 185.337,64.509 194.837,95.6757 189,131.5C 186.893,138.382 184.226,145.049 181,151.5C 187.342,106.523 174.175,68.3563 141.5,37C 138.672,34.7519 135.672,32.7519 132.5,31C 133.416,30.7216 134.082,30.2216 134.5,29.5 Z"/></g>
<g><path style="opacity:1" fill="#f4f4f4" d="M 126.5,132.5 C 125.712,135.97 123.712,138.637 120.5,140.5C 118.5,138.167 116.5,135.833 114.5,133.5C 115.145,132.354 115.978,131.354 117,130.5C 117.5,122.173 117.666,113.84 117.5,105.5C 109.826,105.334 102.159,105.5 94.5,106C 93.646,107.022 92.646,107.855 91.5,108.5C 88.7341,106.741 86.7341,104.407 85.5,101.5C 87.4807,99.8564 89.4807,98.1897 91.5,96.5C 92.646,97.1449 93.646,97.9783 94.5,99C 102.159,99.4997 109.826,99.6664 117.5,99.5C 117.666,92.4921 117.5,85.4921 117,78.5C 115.978,77.646 115.145,76.646 114.5,75.5C 116.167,73.1667 118.167,71.1667 120.5,69.5C 123.037,71.2021 125.037,73.3688 126.5,76C 126.07,77.4341 125.236,78.6008 124,79.5C 123.5,86.1583 123.334,92.825 123.5,99.5C 131.174,99.6664 138.841,99.4997 146.5,99C 147.354,97.9783 148.354,97.1449 149.5,96.5C 157.376,100.718 157.376,104.718 149.5,108.5C 148.354,107.855 147.354,107.022 146.5,106C 138.841,105.5 131.174,105.334 123.5,105.5C 123.334,113.84 123.5,122.173 124,130.5C 124.708,131.381 125.542,132.047 126.5,132.5 Z"/></g>
<g><path style="opacity:1" fill="#0e0e0e" d="M 145.5,108.5 C 139.021,107.509 132.354,107.176 125.5,107.5C 125.175,115.019 125.508,122.352 126.5,129.5C 126.5,129.833 126.5,130.167 126.5,130.5C 126.5,131.167 126.5,131.833 126.5,132.5C 125.542,132.047 124.708,131.381 124,130.5C 123.5,122.173 123.334,113.84 123.5,105.5C 131.174,105.334 138.841,105.5 146.5,106C 147.354,107.022 148.354,107.855 149.5,108.5C 157.376,104.718 157.376,100.718 149.5,96.5C 148.354,97.1449 147.354,97.9783 146.5,99C 138.841,99.4997 131.174,99.6664 123.5,99.5C 123.334,92.825 123.5,86.1583 124,79.5C 125.236,78.6008 126.07,77.4341 126.5,76C 125.037,73.3688 123.037,71.2021 120.5,69.5C 118.167,71.1667 116.167,73.1667 114.5,75.5C 115.145,76.646 115.978,77.646 117,78.5C 117.5,85.4921 117.666,92.4921 117.5,99.5C 109.826,99.6664 102.159,99.4997 94.5,99C 93.646,97.9783 92.646,97.1449 91.5,96.5C 89.4807,98.1897 87.4807,99.8564 85.5,101.5C 85.5,100.833 85.1667,100.5 84.5,100.5C 86.4789,97.8544 88.8122,95.5211 91.5,93.5C 92.9814,94.4803 94.3147,95.647 95.5,97C 102.158,97.4996 108.825,97.6663 115.5,97.5C 115.666,91.8236 115.499,86.1569 115,80.5C 113.5,79 112,77.5 110.5,76C 113.682,72.6507 117.015,69.484 120.5,66.5C 123.985,69.484 127.318,72.6507 130.5,76C 129,77.5 127.5,79 126,80.5C 125.501,86.1569 125.334,91.8236 125.5,97.5C 132.175,97.6663 138.842,97.4996 145.5,97C 146.766,95.0173 148.432,94.0173 150.5,94C 153.5,97 156.5,100 159.5,103C 156.318,106.349 152.985,109.516 149.5,112.5C 147.812,111.479 146.479,110.145 145.5,108.5 Z"/></g>
<g><path style="opacity:1" fill="#1e1e1e" d="M 84.5,100.5 C 85.1667,100.5 85.5,100.833 85.5,101.5C 86.7341,104.407 88.7341,106.741 91.5,108.5C 92.646,107.855 93.646,107.022 94.5,106C 102.159,105.5 109.826,105.334 117.5,105.5C 117.666,113.84 117.5,122.173 117,130.5C 115.978,131.354 115.145,132.354 114.5,133.5C 116.5,135.833 118.5,138.167 120.5,140.5C 123.712,138.637 125.712,135.97 126.5,132.5C 126.5,131.833 126.5,131.167 126.5,130.5C 127.962,131.458 129.295,132.624 130.5,134C 127.318,137.349 123.985,140.516 120.5,143.5C 117.015,140.516 113.682,137.349 110.5,134C 112,132.5 113.5,131 115,129.5C 115.5,122.508 115.666,115.508 115.5,108.5C 108.825,108.334 102.158,108.5 95.5,109C 94.3147,110.353 92.9814,111.52 91.5,112.5C 88.0154,109.516 84.682,106.349 81.5,103C 82.3734,101.955 83.3734,101.122 84.5,100.5 Z"/></g>
<g><path style="opacity:1" fill="#787878" d="M 145.5,108.5 C 139.167,108.5 132.833,108.5 126.5,108.5C 126.5,115.5 126.5,122.5 126.5,129.5C 125.508,122.352 125.175,115.019 125.5,107.5C 132.354,107.176 139.021,107.509 145.5,108.5 Z"/></g>
<g><path style="opacity:1" fill="#f6f6f6" d="M 117.5,160.5 C 120.167,160.5 122.833,160.5 125.5,160.5C 125.5,162.833 125.5,165.167 125.5,167.5C 120.496,167.889 115.496,168.389 110.5,169C 103.333,170.839 96.3325,172.839 89.5,175C 88.4829,173.951 88.3162,172.784 89,171.5C 97.1351,164.398 106.635,160.731 117.5,160.5 Z"/></g>
<g><path style="opacity:1" fill="#8c8c8c" d="M 117.5,160.5 C 120.287,159.523 123.287,159.19 126.5,159.5C 126.806,162.385 126.473,165.052 125.5,167.5C 125.5,165.167 125.5,162.833 125.5,160.5C 122.833,160.5 120.167,160.5 117.5,160.5 Z"/></g>
<g><path style="opacity:1" fill="#f5f5f5" d="M 129.5,160.5 C 143.842,159.504 156.508,163.504 167.5,172.5C 166.833,173.833 165.833,174.833 164.5,175.5C 153.219,171.096 141.553,168.43 129.5,167.5C 129.5,165.167 129.5,162.833 129.5,160.5 Z"/></g>
<g><path style="opacity:1" fill="#fafafa" d="M 114.5,172.5 C 129.907,171.214 144.907,173.048 159.5,178C 161.223,178.523 162.556,179.523 163.5,181C 164.824,185.435 165.324,189.935 165,194.5C 140.323,186.557 115.656,186.557 91,194.5C 90.1805,189.362 90.6805,184.362 92.5,179.5C 99.6968,176.321 107.03,173.988 114.5,172.5 Z"/></g>
<g><path style="opacity:1" fill="#e9e9e8" d="M 115.5,192.5 C 132.875,191.645 149.875,193.645 166.5,198.5C 166.5,200.167 166.5,201.833 166.5,203.5C 140.855,195.539 115.189,195.539 89.5,203.5C 89.5,201.833 89.5,200.167 89.5,198.5C 98.2081,196.154 106.875,194.154 115.5,192.5 Z"/></g>
<g><path style="opacity:1" fill="#f9f9f9" d="M 88.5,210.5 C 99.5034,214.417 110.837,216.751 122.5,217.5C 108.61,223.89 93.9434,226.057 78.5,224C 70.7472,221.527 63.0806,218.86 55.5,216C 51.1667,215.667 46.8333,215.333 42.5,215C 37.3666,212.844 32.0332,211.511 26.5,211C 36.0087,202.722 47.0087,199.722 59.5,202C 68.8489,205.95 78.5155,208.783 88.5,210.5 Z"/></g>
<g><path style="opacity:1" fill="#fafafa" d="M 163.5,208.5 C 139.806,216.425 116.139,216.425 92.5,208.5C 103.626,203.261 115.46,200.927 128,201.5C 139.832,201.285 151.332,203.119 162.5,207C 163.056,207.383 163.389,207.883 163.5,208.5 Z"/></g>
<g><path style="opacity:1" fill="#f9f9f8" d="M 138.5,217.5 C 148.044,216.114 157.378,213.781 166.5,210.5C 170.182,210.665 173.848,210.499 177.5,210C 185.926,207.62 194.259,204.953 202.5,202C 214.82,199.831 225.82,202.664 235.5,210.5C 229.553,210.956 223.886,212.456 218.5,215C 214.5,215.333 210.5,215.667 206.5,216C 198.49,218.673 190.49,221.34 182.5,224C 167.048,226.204 152.382,224.038 138.5,217.5 Z"/></g>
<g><path style="opacity:1" fill="#131312" d="M 166.5,210.5 C 157.378,213.781 148.044,216.114 138.5,217.5C 133.198,218.787 127.864,218.787 122.5,217.5C 110.837,216.751 99.5034,214.417 88.5,210.5C 89.1834,208.824 90.5168,208.157 92.5,208.5C 116.139,216.425 139.806,216.425 163.5,208.5C 164.117,208.389 164.617,208.056 165,207.5C 166.734,208.249 168.567,208.749 170.5,209C 168.942,209.21 167.609,209.71 166.5,210.5 Z"/></g>
</svg>
