<?xml version="1.0" encoding="UTF-8"?>
<!DOCTYPE svg PUBLIC "-//W3C//DTD SVG 1.1//EN" "http://www.w3.org/Graphics/SVG/1.1/DTD/svg11.dtd">
<svg xmlns="http://www.w3.org/2000/svg" version="1.1" width="257px" height="260px" style="shape-rendering:geometricPrecision; text-rendering:geometricPrecision; image-rendering:optimizeQuality; fill-rule:evenodd; clip-rule:evenodd" xmlns:xlink="http://www.w3.org/1999/xlink">
<g><path style="opacity:0.946" fill="#262624" d="M 74.5,16.5 C 77.9892,17.4769 80.8225,19.4769 83,22.5C 85.5876,26.6756 88.4209,30.6756 91.5,34.5C 96.6562,29.1754 101.656,23.6754 106.5,18C 110.166,16.729 112.666,17.8956 114,21.5C 115.061,28.0808 116.894,34.4141 119.5,40.5C 122.607,42.7202 125.94,44.3869 129.5,45.5C 133.358,44.6031 137.191,43.6031 141,42.5C 148.896,46.5428 156.062,51.7095 162.5,58C 167.245,62.7452 172.412,67.9118 178,73.5C 179.903,75.441 180.736,77.7743 180.5,80.5C 183.263,80.7438 185.429,82.0771 187,84.5C 190.749,89.6622 194.249,94.9956 197.5,100.5C 197.167,101.167 196.833,101.833 196.5,102.5C 197.833,103.167 199.167,103.833 200.5,104.5C 204.294,111.254 207.961,118.087 211.5,125C 208.739,127.801 209.406,129.634 213.5,130.5C 216.995,138.486 219.995,146.652 222.5,155C 222.05,156.285 221.383,157.452 220.5,158.5C 222.307,159.395 223.64,160.728 224.5,162.5C 226.32,169.767 227.82,177.101 229,184.5C 229.5,185 230,185.5 230.5,186C 228.981,187.351 227.648,188.851 226.5,190.5C 227.76,191.382 228.926,192.382 230,193.5C 230.921,202.813 231.421,212.147 231.5,221.5C 170.167,221.5 108.833,221.5 47.5,221.5C 49.1551,213.856 52.6551,207.19 58,201.5C 67.7098,192.733 77.8765,184.566 88.5,177C 95.4796,170.358 101.313,162.858 106,154.5C 109.349,146.415 110.516,138.082 109.5,129.5C 102.606,133.411 95.7726,133.411 89,129.5C 83.312,137.421 76.1453,143.588 67.5,148C 62.5,153.667 57.5,159.333 52.5,165C 46.735,168.675 41.4017,168.175 36.5,163.5C 26.8321,164.055 19.9988,159.722 16,150.5C 14.165,143.315 14.8316,136.315 18,129.5C 27.5066,113.824 36.5066,97.8238 45,81.5C 44.5406,73.9668 46.2073,66.9668 50,60.5C 55.6345,53.8643 61.6345,47.531 68,41.5C 69.5486,34.2086 70.8819,26.8753 72,19.5C 72.6979,18.3094 73.5313,17.3094 74.5,16.5 Z"/></g>
<g><path style="opacity:1" fill="#efefef" d="M 75.5,21.5 C 79.2727,24.9887 82.6061,28.9887 85.5,33.5C 81.6917,34.4362 78.025,35.7695 74.5,37.5C 73.6922,32.1337 74.0255,26.8004 75.5,21.5 Z"/></g>
<g><path style="opacity:1" fill="#fdfdfd" d="M 209.5,213.5 C 210.209,214.404 211.209,214.737 212.5,214.5C 212.817,210.298 212.483,206.298 211.5,202.5C 211.5,199.5 211.5,196.5 211.5,193.5C 215.514,193.334 219.514,193.501 223.5,194C 226.145,195.287 227.145,197.453 226.5,200.5C 226.5,205.833 226.5,211.167 226.5,216.5C 168.833,216.5 111.167,216.5 53.5,216.5C 56.4832,210.337 60.4832,204.837 65.5,200C 79.1083,190.446 91.6083,179.612 103,167.5C 111.284,154.808 115.45,140.808 115.5,125.5C 121.793,127.797 128.126,127.964 134.5,126C 128.49,125.067 122.49,123.9 116.5,122.5C 121.446,119.057 125.946,115.057 130,110.5C 131.741,107.691 132.908,104.691 133.5,101.5C 132.5,101.5 131.5,101.5 130.5,101.5C 129.762,105.643 127.929,109.31 125,112.5C 122.356,114.31 119.856,116.31 117.5,118.5C 116.985,115.843 117.485,113.177 119,110.5C 120.029,104.877 120.529,99.2102 120.5,93.5C 119.5,93.5 118.5,93.5 117.5,93.5C 118.714,105.831 115.38,116.664 107.5,126C 101.38,129.134 95.2133,129.301 89,126.5C 83.9752,129.51 79.4752,133.343 75.5,138C 71.8333,140.333 68.1667,142.667 64.5,145C 59.1434,151.355 53.4768,157.355 47.5,163C 44.2158,163.981 41.5491,163.147 39.5,160.5C 42.7137,155.789 45.7137,150.956 48.5,146C 48.1667,145.5 47.8333,145 47.5,144.5C 43.7615,150.129 39.4282,155.296 34.5,160C 26.698,158.661 21.5313,154.161 19,146.5C 18.1086,140.833 19.1086,135.499 22,130.5C 31.5066,114.824 40.5066,98.8238 49,82.5C 48.6654,75.7595 49.9987,69.4262 53,63.5C 60.5368,54.2959 69.0368,46.1292 78.5,39C 83.8333,38.6667 89.1667,38.3333 94.5,38C 99.3333,32.5 104.167,27 109,21.5C 111.063,28.985 113.563,36.3183 116.5,43.5C 120.5,45.8333 124.5,48.1667 128.5,50.5C 133.001,48.383 137.668,47.2163 142.5,47C 147.621,50.4527 152.454,54.2861 157,58.5C 157.41,62.78 155.41,65.4466 151,66.5C 146.178,62.3466 141.345,58.1799 136.5,54C 135.517,53.4092 134.85,53.7425 134.5,55C 170.07,85.9445 193.57,124.445 205,170.5C 207.656,184.708 209.156,199.042 209.5,213.5 Z"/></g>
<g><path style="opacity:1" fill="#343432" d="M 80.5,61.5 C 83.1667,61.5 85.8333,61.5 88.5,61.5C 88.297,63.6382 87.297,65.3049 85.5,66.5C 87.028,76.1614 82.8613,81.8281 73,83.5C 66.8509,82.306 64.8509,78.6393 67,72.5C 69.8891,66.8117 74.3891,63.145 80.5,61.5 Z"/></g>
<g><path style="opacity:1" fill="#f7f7f7" d="M 77.5,65.5 C 82.9885,65.504 84.8219,68.1707 83,73.5C 79.8599,80.0903 75.1933,81.7569 69,78.5C 68.8135,72.2092 71.6469,67.8759 77.5,65.5 Z"/></g>
<g><path style="opacity:1" fill="#f6f6f6" d="M 158.5,64.5 C 160.604,64.2011 162.604,64.5344 164.5,65.5C 168.151,69.6516 171.984,73.6516 176,77.5C 176.236,79.2998 175.736,80.9665 174.5,82.5C 170.778,86.0684 167.278,86.0684 164,82.5C 160.167,78 156.333,73.5 152.5,69C 154.747,67.7225 156.747,66.2225 158.5,64.5 Z"/></g>
<g><path style="opacity:1" fill="#f8f8f8" d="M 175.5,84.5 C 178.97,83.8748 181.804,84.8748 184,87.5C 186.422,91.3438 189.089,95.0105 192,98.5C 192.756,100.809 192.256,102.809 190.5,104.5C 187.626,106.475 184.626,107.142 181.5,106.5C 177.5,100.5 173.5,94.5 169.5,88.5C 171.565,87.1433 173.565,85.81 175.5,84.5 Z"/></g>
<g><path style="opacity:1" fill="#f9f9f9" d="M 191.5,106.5 C 193.827,106.665 195.993,107.331 198,108.5C 201.224,113.781 204.057,119.281 206.5,125C 204.389,129.285 200.889,131.785 196,132.5C 192.06,125.457 188.226,118.29 184.5,111C 186.563,108.975 188.896,107.475 191.5,106.5 Z"/></g>
<g><path style="opacity:1" fill="#323230" d="M 48.5,108.5 C 51.9983,108.565 52.4983,109.899 50,112.5C 45.9873,117.512 41.3206,121.845 36,125.5C 35.3333,126.833 34.6667,128.167 34,129.5C 33.8249,132.95 33.6582,136.283 33.5,139.5C 30.3215,137.414 26.9882,137.08 23.5,138.5C 22.6143,137.675 22.281,136.675 22.5,135.5C 25.1667,135.5 27.8333,135.5 30.5,135.5C 30.2899,130.584 31.7899,126.251 35,122.5C 41.071,119.264 45.571,114.597 48.5,108.5 Z"/></g>
<g><path style="opacity:1" fill="#f9f9f9" d="M 204.5,131.5 C 206.991,131.829 209.157,132.829 211,134.5C 213.762,140.454 215.929,146.62 217.5,153C 215.791,158.193 212.125,161.027 206.5,161.5C 203.078,153.073 199.745,144.573 196.5,136C 198.94,134.027 201.606,132.527 204.5,131.5 Z"/></g>
<g><path style="opacity:1" fill="#f8f8f8" d="M 213.5,161.5 C 216.505,161.253 219.005,162.253 221,164.5C 223.435,171.667 224.435,179.001 224,186.5C 220.356,190.209 215.856,191.876 210.5,191.5C 210.033,182.031 208.699,172.698 206.5,163.5C 209.067,163.279 211.401,162.612 213.5,161.5 Z"/></g>
<g><path style="opacity:1" fill="#777775" d="M 211.5,202.5 C 212.483,206.298 212.817,210.298 212.5,214.5C 211.209,214.737 210.209,214.404 209.5,213.5C 211.414,210.316 212.08,206.649 211.5,202.5 Z"/></g>
<g><path style="opacity:1" fill="#a6a6a5" d="M 226.5,200.5 C 227.489,205.975 227.822,211.642 227.5,217.5C 169.331,217.832 111.331,217.499 53.5,216.5C 111.167,216.5 168.833,216.5 226.5,216.5C 226.5,211.167 226.5,205.833 226.5,200.5 Z"/></g>
</svg>
