<?xml version="1.0" encoding="UTF-8"?>
<!DOCTYPE svg PUBLIC "-//W3C//DTD SVG 1.1//EN" "http://www.w3.org/Graphics/SVG/1.1/DTD/svg11.dtd">
<svg xmlns="http://www.w3.org/2000/svg" version="1.1" width="236px" height="247px" style="shape-rendering:geometricPrecision; text-rendering:geometricPrecision; image-rendering:optimizeQuality; fill-rule:evenodd; clip-rule:evenodd" xmlns:xlink="http://www.w3.org/1999/xlink">
<g><path style="opacity:0.946" fill="#272725" d="M 33.5,12.5 C 43.5,12.5 53.5,12.5 63.5,12.5C 63.5,18.5 63.5,24.5 63.5,30.5C 67.9413,31.4245 72.2746,32.7578 76.5,34.5C 79.913,33.3624 83.2464,32.0291 86.5,30.5C 87.4959,24.5368 87.8293,18.5368 87.5,12.5C 99.8333,12.5 112.167,12.5 124.5,12.5C 124.171,18.5368 124.504,24.5368 125.5,30.5C 129.167,31.8333 132.833,33.1667 136.5,34.5C 140.167,33.1667 143.833,31.8333 147.5,30.5C 148.496,24.5368 148.829,18.5368 148.5,12.5C 158.839,12.3335 169.172,12.5002 179.5,13C 181.286,13.7845 182.786,14.9512 184,16.5C 184.833,28.8468 184.666,41.1802 183.5,53.5C 177.515,58.9851 171.681,64.6518 166,70.5C 165.333,102.167 165.333,133.833 166,165.5C 170.343,170.675 174.843,175.675 179.5,180.5C 180.33,186.472 180.83,192.472 181,198.5C 185,199.167 187.333,201.5 188,205.5C 188.667,209.833 188.667,214.167 188,218.5C 187.654,220.848 186.487,222.681 184.5,224C 132.5,224.667 80.5,224.667 28.5,224C 26.741,222.992 25.5743,221.492 25,219.5C 24.3333,214.5 24.3333,209.5 25,204.5C 25.7903,200.71 28.1236,198.71 32,198.5C 32.1697,192.472 32.6697,186.472 33.5,180.5C 38.1565,175.675 42.6565,170.675 47,165.5C 47.6667,133.833 47.6667,102.167 47,70.5C 41.3188,64.6518 35.4854,58.9851 29.5,53.5C 28.3341,41.1802 28.1674,28.8468 29,16.5C 30.2499,14.8065 31.7499,13.4732 33.5,12.5 Z"/></g>
<g><path style="opacity:1" fill="#b0b0af" d="M 121.5,33.5 C 120.512,28.3595 120.179,23.0262 120.5,17.5C 111.167,17.5 101.833,17.5 92.5,17.5C 92.8214,23.0262 92.4881,28.3595 91.5,33.5C 91.5,27.8333 91.5,22.1667 91.5,16.5C 101.5,16.5 111.5,16.5 121.5,16.5C 121.5,22.1667 121.5,27.8333 121.5,33.5 Z"/></g>
<g><path style="opacity:1" fill="#fdfdfd" d="M 91.5,33.5 C 92.4881,28.3595 92.8214,23.0262 92.5,17.5C 101.833,17.5 111.167,17.5 120.5,17.5C 120.179,23.0262 120.512,28.3595 121.5,33.5C 126.286,35.2621 131.119,36.9288 136,38.5C 141.528,36.91 147.028,35.2433 152.5,33.5C 153.488,28.3595 153.821,23.0262 153.5,17.5C 162.167,17.5 170.833,17.5 179.5,17.5C 180.494,27.9869 180.828,38.6536 180.5,49.5C 131.167,49.5 81.8333,49.5 32.5,49.5C 32.3335,38.8281 32.5002,28.1615 33,17.5C 41.7489,16.5161 50.5822,16.1828 59.5,16.5C 59.1712,22.2055 59.5046,27.8722 60.5,33.5C 65.5708,35.4681 70.7375,37.1347 76,38.5C 81.1402,36.731 86.3069,35.0643 91.5,33.5 Z"/></g>
<g><path style="opacity:1" fill="#a7a7a6" d="M 179.5,17.5 C 170.833,17.5 162.167,17.5 153.5,17.5C 153.821,23.0262 153.488,28.3595 152.5,33.5C 152.5,27.8333 152.5,22.1667 152.5,16.5C 161.682,16.1734 170.682,16.5067 179.5,17.5 Z"/></g>
<g><path style="opacity:1" fill="#70706e" d="M 176.5,54.5 C 129.833,53.1667 83.1667,53.1667 36.5,54.5C 35.9569,54.44 35.6236,54.1067 35.5,53.5C 82.8333,52.1667 130.167,52.1667 177.5,53.5C 177.376,54.1067 177.043,54.44 176.5,54.5 Z"/></g>
<g><path style="opacity:1" fill="#fefefe" d="M 36.5,54.5 C 83.1667,53.1667 129.833,53.1667 176.5,54.5C 172.036,58.4632 167.702,62.6298 163.5,67C 125.5,67.6667 87.5,67.6667 49.5,67C 45.2978,62.6298 40.9645,58.4632 36.5,54.5 Z"/></g>
<g><path style="opacity:1" fill="#fefefe" d="M 51.5,71.5 C 88.1667,71.5 124.833,71.5 161.5,71.5C 161.5,102.5 161.5,133.5 161.5,164.5C 124.833,164.5 88.1667,164.5 51.5,164.5C 51.5,133.5 51.5,102.5 51.5,71.5 Z"/></g>
<g><path style="opacity:1" fill="#fefefe" d="M 172.5,179.5 C 128.5,180.833 84.5,180.833 40.5,179.5C 43.6645,176.167 46.6645,172.667 49.5,169C 87.5,168.333 125.5,168.333 163.5,169C 166.336,172.667 169.336,176.167 172.5,179.5 Z"/></g>
<g><path style="opacity:1" fill="#a5a5a4" d="M 40.5,179.5 C 84.5,180.833 128.5,180.833 172.5,179.5C 173.043,179.56 173.376,179.893 173.5,180.5C 128.833,181.833 84.1667,181.833 39.5,180.5C 39.6236,179.893 39.9569,179.56 40.5,179.5 Z"/></g>
<g><path style="opacity:1" fill="#d3d3d3" d="M 175.5,199.5 C 175.5,194.833 175.5,190.167 175.5,185.5C 129.5,185.5 83.5,185.5 37.5,185.5C 37.5,190.167 37.5,194.833 37.5,199.5C 36.5128,194.695 36.1795,189.695 36.5,184.5C 83.1667,184.5 129.833,184.5 176.5,184.5C 176.821,189.695 176.487,194.695 175.5,199.5 Z"/></g>
<g><path style="opacity:1" fill="#fdfdfd" d="M 175.5,199.5 C 129.5,199.5 83.5,199.5 37.5,199.5C 37.5,194.833 37.5,190.167 37.5,185.5C 83.5,185.5 129.5,185.5 175.5,185.5C 175.5,190.167 175.5,194.833 175.5,199.5 Z"/></g>
<g><path style="opacity:1" fill="#fdfdfd" d="M 29.5,203.5 C 80.8344,203.333 132.168,203.5 183.5,204C 184.637,209.082 184.804,214.249 184,219.5C 132.571,220.664 81.0707,220.83 29.5,220C 28.1888,214.5 28.1888,209 29.5,203.5 Z"/></g>
</svg>
