<?xml version="1.0" encoding="UTF-8"?>
<!DOCTYPE svg PUBLIC "-//W3C//DTD SVG 1.1//EN" "http://www.w3.org/Graphics/SVG/1.1/DTD/svg11.dtd">
<svg xmlns="http://www.w3.org/2000/svg" version="1.1" width="269px" height="239px" style="shape-rendering:geometricPrecision; text-rendering:geometricPrecision; image-rendering:optimizeQuality; fill-rule:evenodd; clip-rule:evenodd" xmlns:xlink="http://www.w3.org/1999/xlink">
<g><path style="opacity:0.993" fill="#20201e" d="M 153.5,21.5 C 154.473,21.9867 155.473,22.4867 156.5,23C 161.315,28.6496 166.315,34.1496 171.5,39.5C 175.622,34.0886 179.622,28.5886 183.5,23C 185.624,21.4178 187.79,21.2512 190,22.5C 191.604,29.783 193.104,37.1163 194.5,44.5C 202.241,51.7395 209.074,59.7395 215,68.5C 217.271,72.673 217.771,77.0064 216.5,81.5C 223.952,97.737 232.452,113.404 242,128.5C 253.849,151.067 247.682,164.9 223.5,170C 218.413,172.305 213.746,171.638 209.5,168C 205.88,162.711 201.88,157.711 197.5,153C 188.45,147.949 180.617,141.449 174,133.5C 166.846,137.53 159.846,137.197 153,132.5C 151.606,144.81 154.273,156.143 161,166.5C 172.006,179.407 184.506,190.573 198.5,200C 206.139,206.633 211.806,214.633 215.5,224C 154.501,224.5 93.5009,224.667 32.5,224.5C 32.2589,216.139 32.5922,207.805 33.5,199.5C 33.62,196.936 34.9533,195.436 37.5,195C 35.6487,193.316 33.982,191.483 32.5,189.5C 33.5217,188.646 34.3551,187.646 35,186.5C 36.077,179.782 37.4104,173.115 39,166.5C 40.236,164.462 42.0694,163.295 44.5,163C 42.6431,161.818 41.6431,160.151 41.5,158C 43.6294,149.909 46.4627,142.075 50,134.5C 51.3988,133.773 52.8988,133.273 54.5,133C 52.9644,131.401 52.4644,129.567 53,127.5C 55.9119,121.342 59.0785,115.342 62.5,109.5C 63.9122,108.194 65.5789,107.36 67.5,107C 66.4464,105.612 66.2797,104.112 67,102.5C 70.5882,96.9902 74.4215,91.6569 78.5,86.5C 80.0453,85.5481 81.712,85.2148 83.5,85.5C 82.3918,83.3049 82.5585,81.3049 84,79.5C 90.6139,72.8861 96.6139,66.8861 102,61.5C 107.787,55.5427 114.287,50.5427 121.5,46.5C 125.692,47.7306 129.859,49.0639 134,50.5C 137.989,48.6724 141.655,46.339 145,43.5C 146.823,37.2099 148.489,30.8765 150,24.5C 150.985,23.1859 152.152,22.1859 153.5,21.5 Z"/></g>
<g><path style="opacity:1" fill="#e7e7e7" d="M 126.5,57.5 C 128.225,57.8425 128.725,58.8425 128,60.5C 80.3192,102.203 55.4859,154.87 53.5,218.5C 52.5,218.5 51.5,218.5 50.5,218.5C 50.7955,211.765 50.7955,205.098 50.5,198.5C 47.9159,197.607 45.2492,197.274 42.5,197.5C 42.5,196.5 42.5,195.5 42.5,194.5C 45.7861,195.207 49.1194,195.54 52.5,195.5C 52.9479,186.865 54.2812,178.365 56.5,170C 56.3552,169.228 56.0219,168.561 55.5,168C 53.1873,167.338 50.854,166.838 48.5,166.5C 48.5,165.5 48.5,164.5 48.5,163.5C 51.0667,163.855 53.5667,164.521 56,165.5C 56.772,165.355 57.4387,165.022 58,164.5C 60.5448,155.7 63.3782,147.033 66.5,138.5C 63.3136,138.387 60.6469,137.22 58.5,135C 58.8333,134.5 59.1667,134 59.5,133.5C 62.3744,135.475 65.3744,136.142 68.5,135.5C 71.6133,128.555 74.9467,121.722 78.5,115C 76.1667,113.333 73.8333,111.667 71.5,110C 71.8333,109.5 72.1667,109 72.5,108.5C 75.0398,109.402 77.5398,110.402 80,111.5C 84.9813,105.549 89.4813,99.2152 93.5,92.5C 91.9991,91.2485 90.3325,90.2485 88.5,89.5C 87.1667,88.5 87.1667,87.5 88.5,86.5C 90.9724,88.2514 93.639,89.0847 96.5,89C 101.167,83.6667 105.833,78.3333 110.5,73C 108.667,71.8333 106.833,70.6667 105,69.5C 104.251,68.365 104.417,67.365 105.5,66.5C 107.67,68.0862 110.004,69.4196 112.5,70.5C 117.213,66.1168 121.88,61.7834 126.5,57.5 Z"/></g>
<g><path style="opacity:1" fill="#e7e7e7" d="M 175.5,65.5 C 185.657,65.1517 192.824,69.485 197,78.5C 197.646,84.0268 195.146,87.0268 189.5,87.5C 179.923,85.6113 175.923,79.9447 177.5,70.5C 176.737,69.2807 175.737,68.2807 174.5,67.5C 174.863,66.8165 175.196,66.1499 175.5,65.5 Z"/></g>
<g><path style="opacity:1" fill="#262624" d="M 181.5,69.5 C 188.57,69.9009 192.903,73.5676 194.5,80.5C 193.148,84.2541 190.482,85.4208 186.5,84C 180.093,80.6111 178.427,75.7778 181.5,69.5 Z"/></g>
<g><path style="opacity:1" fill="#e3e3e3" d="M 142.5,97.5 C 143.5,97.5 144.5,97.5 145.5,97.5C 145.334,101.514 145.501,105.514 146,109.5C 147.64,116.407 149.64,123.073 152,129.5C 151.586,129.043 151.086,128.709 150.5,128.5C 143.272,131.707 135.939,132.207 128.5,130C 134.474,129.008 140.474,127.841 146.5,126.5C 138.185,121.531 132.518,114.531 129.5,105.5C 130.5,105.5 131.5,105.5 132.5,105.5C 134.881,112.729 139.381,118.396 146,122.5C 145.647,118.422 144.647,114.422 143,110.5C 142.501,106.179 142.334,101.846 142.5,97.5 Z"/></g>
<g><path style="opacity:1" fill="#e7e7e7" d="M 212.5,111.5 C 217.755,117.586 223.589,123.253 230,128.5C 232.006,131.536 232.84,134.869 232.5,138.5C 235.482,138.104 238.149,138.771 240.5,140.5C 236.616,140.994 232.949,141.994 229.5,143.5C 229.799,139.135 229.299,134.802 228,130.5C 223.524,125.934 218.857,121.601 214,117.5C 212.438,115.496 211.938,113.496 212.5,111.5 Z"/></g>
</svg>
