<?xml version="1.0" encoding="UTF-8"?>
<!DOCTYPE svg PUBLIC "-//W3C//DTD SVG 1.1//EN" "http://www.w3.org/Graphics/SVG/1.1/DTD/svg11.dtd">
<svg xmlns="http://www.w3.org/2000/svg" version="1.1" width="245px" height="250px" style="shape-rendering:geometricPrecision; text-rendering:geometricPrecision; image-rendering:optimizeQuality; fill-rule:evenodd; clip-rule:evenodd" xmlns:xlink="http://www.w3.org/1999/xlink">
<g><path style="opacity:0.946" fill="#252523" d="M 160.5,16.5 C 162.17,16.7512 163.67,17.4178 165,18.5C 166.441,26.1474 167.775,33.8141 169,41.5C 176.239,47.3174 182.573,53.9841 188,61.5C 190.918,67.4625 192.251,73.7958 192,80.5C 201.079,97.6604 210.413,114.66 220,131.5C 225.773,146.283 221.607,157.116 207.5,164C 205.231,164.758 203.064,164.591 201,163.5C 195.928,168.127 190.428,168.627 184.5,165C 177.408,154.573 168.408,146.24 157.5,140C 154.312,136.812 151.145,133.645 148,130.5C 140.587,133.614 133.587,132.948 127,128.5C 126.162,145.989 131.995,160.823 144.5,173C 157.129,182.571 169.296,192.738 181,203.5C 185.451,208.77 188.284,214.77 189.5,221.5C 128.167,221.5 66.8333,221.5 5.5,221.5C 5.91668,212.833 6.41668,204.166 7,195.5C 7.19684,193.139 8.36351,191.472 10.5,190.5C 9.5,189.167 8.5,187.833 7.5,186.5C 9.17183,178.144 11.0052,169.811 13,161.5C 16.6496,159.844 17.1496,157.678 14.5,155C 16.9311,147.042 19.7644,139.208 23,131.5C 24.2183,129.981 25.7183,128.814 27.5,128C 26.4238,126.274 26.2571,124.441 27,122.5C 30.3333,116.5 33.6667,110.5 37,104.5C 41.3338,104.333 42.1672,102.833 39.5,100C 43.7807,93.3854 48.4474,87.0521 53.5,81C 54.8333,80.6667 56.1667,80.3333 57.5,80C 56.4829,78.9505 56.3162,77.7839 57,76.5C 61.1329,71.3656 65.6329,66.5323 70.5,62C 72.0249,60.9914 73.6916,60.4914 75.5,60.5C 75.238,59.0222 75.5713,57.6888 76.5,56.5C 82.0227,51.8097 87.6894,47.3097 93.5,43C 98.3866,43.1751 103.22,44.0084 108,45.5C 111.369,44.473 114.536,42.973 117.5,41C 120.175,33.282 122.841,25.6153 125.5,18C 127.167,17.3333 128.833,17.3333 130.5,18C 135.344,23.6754 140.344,29.1754 145.5,34.5C 149.144,30.5596 152.31,26.2262 155,21.5C 156.73,19.5981 158.563,17.9314 160.5,16.5 Z"/></g>
<g><path style="opacity:1" fill="#e9e9e9" d="M 160.5,21.5 C 161.725,22.1522 162.392,23.3189 162.5,25C 163.392,29.5051 163.892,34.0051 164,38.5C 160.068,36.4109 155.901,34.9109 151.5,34C 154.387,29.7157 157.387,25.5491 160.5,21.5 Z"/></g>
<g><path style="opacity:1" fill="#fdfdfd" d="M 183.5,215.5 C 126.002,216.499 68.3357,216.832 10.5,216.5C 10.5,212.167 10.5,207.833 10.5,203.5C 9.89918,199.71 10.8992,196.544 13.5,194C 17.5369,193.393 21.5369,193.56 25.5,194.5C 25.17,201.2 25.5033,207.866 26.5,214.5C 29.7392,150.531 55.0726,97.3643 102.5,55C 102.15,53.7425 101.483,53.4092 100.5,54C 95.6844,57.9812 91.0178,62.1479 86.5,66.5C 83.2606,65.2295 80.9272,63.0628 79.5,60C 83.907,54.9661 88.907,50.6328 94.5,47C 99.355,47.722 104.188,48.8887 109,50.5C 113.399,48.384 117.566,45.884 121.5,43C 123.752,35.8154 125.919,28.6487 128,21.5C 132.649,26.9828 137.482,32.3161 142.5,37.5C 149.326,37.9602 155.992,39.1269 162.5,41C 172.465,48.6277 180.632,57.7944 187,68.5C 187.333,72.8333 187.667,77.1667 188,81.5C 197.413,99.3269 207.079,116.994 217,134.5C 220.302,144.26 217.802,152.093 209.5,158C 207.35,159.59 205.017,160.257 202.5,160C 197.949,154.955 193.616,149.788 189.5,144.5C 188.417,145.365 188.251,146.365 189,147.5C 191.848,151.677 194.682,155.844 197.5,160C 195.723,163.101 193.057,164.101 189.5,163C 183.62,157.275 177.953,151.275 172.5,145C 164.116,140.637 157.116,134.637 151.5,127C 146.979,126.433 142.646,126.933 138.5,128.5C 131.37,128.517 126.537,125.184 124,118.5C 120.425,110.534 118.925,102.2 119.5,93.5C 118.5,93.5 117.5,93.5 116.5,93.5C 116.884,102.008 118.051,110.341 120,118.5C 116.034,115.536 112.367,112.203 109,108.5C 107.293,106.091 106.46,103.425 106.5,100.5C 105.5,100.5 104.5,100.5 103.5,100.5C 103.925,104.607 105.425,108.274 108,111.5C 111.747,115.754 115.914,119.421 120.5,122.5C 114.95,123.956 109.283,124.956 103.5,125.5C 103.667,125.833 103.833,126.167 104,126.5C 110.185,127.668 116.352,127.334 122.5,125.5C 121.653,149.306 130.653,168.472 149.5,183C 160.209,190.036 170.042,198.202 179,207.5C 180.765,210.032 182.265,212.699 183.5,215.5 Z"/></g>
<g><path style="opacity:1" fill="#30302e" d="M 149.5,61.5 C 159.657,61.1517 166.824,65.485 171,74.5C 171.646,80.0268 169.146,83.0268 163.5,83.5C 157.766,82.9326 153.932,79.9326 152,74.5C 151.853,69.9425 151.019,65.6092 149.5,61.5 Z"/></g>
<g><path style="opacity:1" fill="#f7f7f7" d="M 73.5,64.5 C 77.8441,64.3385 81.5107,65.8385 84.5,69C 79.6311,74.8662 74.4644,80.3662 69,85.5C 61.5745,84.1407 59.9078,80.4741 64,74.5C 67.3709,71.2975 70.5375,67.9641 73.5,64.5 Z"/></g>
<g><path style="opacity:1" fill="#f7f7f7" d="M 155.5,65.5 C 162.383,65.8863 166.716,69.3863 168.5,76C 167.472,80.2059 164.805,81.5392 160.5,80C 154.093,76.6111 152.427,71.7778 155.5,65.5 Z"/></g>
<g><path style="opacity:1" fill="#f8f8f8" d="M 55.5,84.5 C 60.272,84.0569 64.272,85.5569 67.5,89C 63.3428,95.5086 58.8428,101.675 54,107.5C 49.5012,106.854 46.3346,104.521 44.5,100.5C 48.1766,95.1378 51.8432,89.8045 55.5,84.5 Z"/></g>
<g><path style="opacity:1" fill="#f7f7f7" d="M 40.5,106.5 C 45.0804,106.953 49.4138,108.286 53.5,110.5C 49.574,118.024 45.4074,125.358 41,132.5C 35.8659,131.862 32.3659,129.196 30.5,124.5C 33.8455,118.473 37.1788,112.473 40.5,106.5 Z"/></g>
<g><path style="opacity:1" fill="#30302f" d="M 185.5,108.5 C 188.713,109.164 190.879,111.164 192,114.5C 197.807,118.061 202.473,122.728 206,128.5C 206.497,130.81 206.663,133.143 206.5,135.5C 209.167,135.5 211.833,135.5 214.5,135.5C 214.5,136.5 214.5,137.5 214.5,138.5C 210.195,136.662 206.361,137.328 203,140.5C 202.937,138.04 203.104,135.54 203.5,133C 203.506,130.7 203.006,128.534 202,126.5C 197.033,122.534 192.366,118.201 188,113.5C 186.906,111.922 186.072,110.255 185.5,108.5 Z"/></g>
<g><path style="opacity:1" fill="#f8f8f8" d="M 30.5,131.5 C 33.7036,132.901 37.0369,133.901 40.5,134.5C 37.4262,143.387 34.7596,152.387 32.5,161.5C 26.3567,161.603 22.0234,158.936 19.5,153.5C 21.3688,147.06 23.5354,140.727 26,134.5C 27.4087,133.219 28.9087,132.219 30.5,131.5 Z"/></g>
<g><path style="opacity:1" fill="#f9f9f9" d="M 20.5,161.5 C 23.5682,162.022 26.5682,162.855 29.5,164C 30.0585,164.725 30.3918,165.558 30.5,166.5C 28.624,174.755 27.2907,183.089 26.5,191.5C 20.9302,192.584 16.4302,190.917 13,186.5C 12.9533,179.389 13.9533,172.389 16,165.5C 16.9066,163.391 18.4066,162.058 20.5,161.5 Z"/></g>
<g><path style="opacity:0.771" fill="#1e1e1d" d="M 244.5,214.5 C 244.5,216.5 244.5,218.5 244.5,220.5C 240.5,218.5 240.5,216.5 244.5,214.5 Z"/></g>
<g><path style="opacity:1" fill="#a2a2a1" d="M 10.5,203.5 C 10.5,207.833 10.5,212.167 10.5,216.5C 68.3357,216.832 126.002,216.499 183.5,215.5C 184.043,215.56 184.376,215.893 184.5,216.5C 126.17,217.5 67.8371,217.833 9.5,217.5C 9.18054,212.637 9.51388,207.97 10.5,203.5 Z"/></g>
</svg>
