<?xml version="1.0" encoding="UTF-8"?>
<!DOCTYPE svg PUBLIC "-//W3C//DTD SVG 1.1//EN" "http://www.w3.org/Graphics/SVG/1.1/DTD/svg11.dtd">
<svg xmlns="http://www.w3.org/2000/svg" version="1.1" width="241px" height="248px" style="shape-rendering:geometricPrecision; text-rendering:geometricPrecision; image-rendering:optimizeQuality; fill-rule:evenodd; clip-rule:evenodd" xmlns:xlink="http://www.w3.org/1999/xlink">
<g><path style="opacity:0.968" fill="#262624" d="M 96.5,15.5 C 114.833,15.5 133.167,15.5 151.5,15.5C 151.788,36.5267 151.454,57.5267 150.5,78.5C 153.038,78.5072 155.538,78.8405 158,79.5C 167.433,75.5169 177.266,73.1836 187.5,72.5C 204.514,72.7436 216.681,80.4103 224,95.5C 229.88,117.433 225.547,137.099 211,154.5C 205.302,160.532 199.302,166.199 193,171.5C 188.858,179.16 188.358,187.16 191.5,195.5C 191.471,197.029 190.804,198.196 189.5,199C 145.833,219.667 102.167,219.667 58.5,199C 57.4258,198.261 56.7591,197.261 56.5,196C 60.249,187.342 59.749,179.176 55,171.5C 37.4177,158.333 26.4177,141 22,119.5C 19.769,90.8973 32.9357,75.2307 61.5,72.5C 70.5748,73.102 79.2415,75.2687 87.5,79C 90.8492,79.3876 94.1825,79.2209 97.5,78.5C 96.5339,57.5333 96.2006,36.5333 96.5,15.5 Z"/></g>
<g><path style="opacity:1" fill="#51514f" d="M 143.5,20.5 C 130.323,20.1712 117.323,20.5045 104.5,21.5C 103.957,21.44 103.624,21.1067 103.5,20.5C 110.333,20.1667 117.167,19.8333 124,19.5C 131.246,19.4812 137.746,19.8146 143.5,20.5 Z"/></g>
<g><path style="opacity:1" fill="#fafafa" d="M 104.5,21.5 C 117.323,20.5045 130.323,20.1712 143.5,20.5C 137.196,26.6339 130.696,32.6339 124,38.5C 117.628,32.6243 111.128,26.9577 104.5,21.5 Z"/></g>
<g><path style="opacity:1" fill="#fafafa" d="M 100.5,23.5 C 107.521,29.0265 114.188,35.0265 120.5,41.5C 114.355,47.4011 108.022,53.0678 101.5,58.5C 100.501,46.8523 100.168,35.1857 100.5,23.5 Z"/></g>
<g><path style="opacity:1" fill="#c5c5c4" d="M 145.5,57.5 C 146.833,46.5 146.833,35.5 145.5,24.5C 145.783,23.7109 146.283,23.0442 147,22.5C 147.667,34.8333 147.667,47.1667 147,59.5C 146.283,58.9558 145.783,58.2891 145.5,57.5 Z"/></g>
<g><path style="opacity:1" fill="#fafafa" d="M 145.5,24.5 C 146.833,35.5 146.833,46.5 145.5,57.5C 139.039,52.2092 132.705,46.7092 126.5,41C 132.705,35.2908 139.039,29.7908 145.5,24.5 Z"/></g>
<g><path style="opacity:1" fill="#fafafa" d="M 143.5,61.5 C 130.323,61.8288 117.323,61.4955 104.5,60.5C 111.128,55.0423 117.628,49.3757 124,43.5C 130.696,49.3661 137.196,55.3661 143.5,61.5 Z"/></g>
<g><path style="opacity:1" fill="#6a6a69" d="M 104.5,60.5 C 117.323,61.4955 130.323,61.8288 143.5,61.5C 137.746,62.1854 131.246,62.5188 124,62.5C 117.167,62.1667 110.333,61.8333 103.5,61.5C 103.624,60.8933 103.957,60.56 104.5,60.5 Z"/></g>
<g><path style="opacity:1" fill="#f3f3f3" d="M 100.5,65.5 C 104.846,65.3343 109.179,65.501 113.5,66C 108.577,68.327 105.41,72.1603 104,77.5C 100.903,74.1405 99.736,70.1405 100.5,65.5 Z"/></g>
<g><path style="opacity:1" fill="#e8e8e8" d="M 135.5,66.5 C 139.298,65.5166 143.298,65.1832 147.5,65.5C 147.664,68.1873 147.497,70.854 147,73.5C 146.632,74.91 145.799,75.91 144.5,76.5C 142.879,71.8816 139.879,68.5483 135.5,66.5 Z"/></g>
<g><path style="opacity:1" fill="#fafafa" d="M 117.5,67.5 C 124.255,66.6681 130.589,67.8348 136.5,71C 142.981,80.0751 140.647,86.0751 129.5,89C 120.682,91.5557 113.848,89.0557 109,81.5C 108.333,79.1667 108.333,76.8333 109,74.5C 111.441,71.5464 114.275,69.2131 117.5,67.5 Z"/></g>
<g><path style="opacity:1" fill="#fdfdfd" d="M 51.5,77.5 C 83.3066,76.8218 106.807,90.4885 122,118.5C 124.585,119.885 126.585,119.218 128,116.5C 142.902,89.4677 165.735,76.6344 196.5,78C 210,81.5 218.5,90 222,103.5C 223.829,126.52 215.996,145.52 198.5,160.5C 160.935,148.174 122.601,145.174 83.5,151.5C 72.0327,153.491 60.866,156.491 50,160.5C 30.7161,143.977 23.3827,123.31 28,98.5C 32.5966,87.7295 40.43,80.7295 51.5,77.5 Z"/></g>
<g><path style="opacity:1" fill="#f5f5f5" d="M 98.5,81.5 C 100.833,81.5 103.167,81.5 105.5,81.5C 105.781,83.9628 106.781,86.1295 108.5,88C 117.677,94.6208 127.344,95.2874 137.5,90C 140.425,87.0748 143.259,84.2414 146,81.5C 148.589,81.8508 151.089,82.5175 153.5,83.5C 141.789,91.5439 132.122,101.544 124.5,113.5C 116.905,101.571 107.239,91.5708 95.5,83.5C 96.6016,82.8243 97.6016,82.1577 98.5,81.5 Z"/></g>
<g><path style="opacity:1" fill="#f6f6f6" d="M 101.5,152.5 C 131.754,150.576 161.421,153.743 190.5,162C 192.044,162.29 193.377,162.956 194.5,164C 189.267,167.977 186.267,173.143 185.5,179.5C 173.373,175.886 161.04,173.052 148.5,171C 119.237,166.465 90.9041,169.631 63.5,180.5C 62.1001,173.873 58.7667,168.373 53.5,164C 60.1827,160.884 67.1827,158.55 74.5,157C 83.6189,155.344 92.6189,153.844 101.5,152.5 Z"/></g>
<g><path style="opacity:1" fill="#101010" d="M 122.5,156.5 C 126.604,156.884 130.271,158.384 133.5,161C 130.047,163.24 126.381,164.573 122.5,165C 120.004,163.92 117.67,162.586 115.5,161C 117.898,159.476 120.231,157.976 122.5,156.5 Z"/></g>
<g><path style="opacity:1" fill="#0d0d0d" d="M 82.5,161.5 C 94.9548,162.317 95.6214,165.317 84.5,170.5C 81.3952,169.48 78.3952,168.313 75.5,167C 78.02,165.303 80.3533,163.47 82.5,161.5 Z"/></g>
<g><path style="opacity:1" fill="#111111" d="M 161.5,161.5 C 166.361,161.43 170.361,163.263 173.5,167C 169.985,168.843 166.318,169.843 162.5,170C 159.98,168.237 157.647,166.237 155.5,164C 157.611,163.155 159.611,162.322 161.5,161.5 Z"/></g>
<g><path style="opacity:1" fill="#f3f3f3" d="M 110.5,172.5 C 135.994,171.249 160.66,175.083 184.5,184C 185.435,186.381 185.768,188.881 185.5,191.5C 154.658,179.569 122.992,176.735 90.5,183C 81.1228,185.07 72.1228,188.237 63.5,192.5C 62.9315,189.588 62.9315,186.588 63.5,183.5C 78.8717,178.162 94.5384,174.495 110.5,172.5 Z"/></g>
<g><path style="opacity:1" fill="#fcfcfc" d="M 111.5,183.5 C 136.508,182.048 160.508,186.214 183.5,196C 156.843,208.872 128.843,212.872 99.5,208C 87.2247,205.854 75.5581,202.021 64.5,196.5C 79.6323,189.803 95.299,185.47 111.5,183.5 Z"/></g>
<g><path style="opacity:0.837" fill="#1f1f1e" d="M -0.5,214.5 C 2.2436,215.072 3.07693,216.738 2,219.5C 1.32924,220.252 0.495904,220.586 -0.5,220.5C -0.5,218.5 -0.5,216.5 -0.5,214.5 Z"/></g>
</svg>
