<?xml version="1.0" encoding="UTF-8"?>
<!DOCTYPE svg PUBLIC "-//W3C//DTD SVG 1.1//EN" "http://www.w3.org/Graphics/SVG/1.1/DTD/svg11.dtd">
<svg xmlns="http://www.w3.org/2000/svg" version="1.1" width="235px" height="232px" style="shape-rendering:geometricPrecision; text-rendering:geometricPrecision; image-rendering:optimizeQuality; fill-rule:evenodd; clip-rule:evenodd" xmlns:xlink="http://www.w3.org/1999/xlink">
<g><path style="opacity:0.935" fill="#262624" d="M 114.5,18.5 C 127.769,16.6029 133.602,22.2696 132,35.5C 130.36,38.973 127.86,41.6397 124.5,43.5C 128.408,67.6174 132.741,91.6174 137.5,115.5C 146.492,95.5344 155.492,75.5344 164.5,55.5C 159.788,49.9154 159.288,43.9154 163,37.5C 168.121,32.9433 173.621,32.4433 179.5,36C 183.682,40.9671 184.516,46.4671 182,52.5C 180.159,55.1779 177.659,56.8445 174.5,57.5C 172.046,78.8342 169.712,100.167 167.5,121.5C 168.365,122.583 169.365,122.749 170.5,122C 183.833,106 197.167,90 210.5,74C 207.142,67.5402 208.142,61.8736 213.5,57C 220.079,54.4354 226.079,55.4354 231.5,60C 231.444,63.6938 231.277,67.5272 231,71.5C 228.591,76.7915 224.425,79.1249 218.5,78.5C 207.907,107.025 196.74,135.359 185,163.5C 184.333,174.167 184.333,184.833 185,195.5C 185.236,197.764 185.736,199.931 186.5,202C 185.929,203.205 185.262,204.372 184.5,205.5C 141.551,223.975 98.5515,224.142 55.5,206C 54.8333,205 54.1667,204 53.5,203C 56.0942,189.196 55.9276,175.363 53,161.5C 42.0687,134.206 31.2354,106.873 20.5,79.5C 10.3405,78.1805 6.17387,72.5138 8,62.5C 12.979,55.0095 19.479,53.5095 27.5,58C 32.1196,63.1699 32.4529,68.5032 28.5,74C 41.4526,89.4078 54.286,104.908 67,120.5C 68.1096,122.037 69.6096,122.703 71.5,122.5C 69.4966,100.8 67.1633,79.1329 64.5,57.5C 56.8675,54.7955 54.0342,49.4621 56,41.5C 59.5113,34.4384 65.0113,32.2717 72.5,35C 74.286,35.7845 75.786,36.9512 77,38.5C 79.6096,44.6081 78.7763,50.1081 74.5,55C 83.3591,75.2192 92.3591,95.3858 101.5,115.5C 102.086,115.291 102.586,114.957 103,114.5C 106.726,91.1466 110.559,67.8133 114.5,44.5C 104.002,35.6318 104.002,26.9651 114.5,18.5 Z"/></g>
<g><path style="opacity:1" fill="#f8f8f8" d="M 64.5,37.5 C 72.6965,37.529 75.8631,41.529 74,49.5C 68.8374,55.0623 64.1708,54.729 60,48.5C 58.7758,43.626 60.2758,39.9593 64.5,37.5 Z"/></g>
<g><path style="opacity:1" fill="#f7f7f7" d="M 169.5,37.5 C 177.696,37.529 180.863,41.529 179,49.5C 174.333,54.8333 169.667,54.8333 165,49.5C 163.309,44.1311 164.809,40.1311 169.5,37.5 Z"/></g>
<g><path style="opacity:1" fill="#fbfbfb" d="M 23.5,74.5 C 38.2548,92.3213 53.2548,109.988 68.5,127.5C 70.8111,126.786 72.9777,125.786 75,124.5C 75.1667,123.167 75.3333,121.833 75.5,120.5C 72.8519,98.8733 71.0186,77.2066 70,55.5C 80.0029,76.5024 89.1695,97.8357 97.5,119.5C 100.5,119.5 103.5,119.5 106.5,119.5C 110.5,92.8333 114.5,66.1667 118.5,39.5C 110.28,36.7208 108.613,31.7208 113.5,24.5C 125.387,20.2212 129.887,24.2212 127,36.5C 125.266,38.4506 123.099,39.4506 120.5,39.5C 124.599,65.8325 128.766,92.1658 133,118.5C 135.719,119.444 138.552,119.777 141.5,119.5C 149.822,97.8503 158.989,76.5169 169,55.5C 167.56,78.8435 165.727,102.177 163.5,125.5C 165.905,125.866 168.238,126.533 170.5,127.5C 186.194,110.134 201.194,92.1339 215.5,73.5C 211.262,68.6673 211.595,64.1673 216.5,60C 225.333,58.1667 228.833,61.6667 227,70.5C 226.5,72.3333 225.333,73.5 223.5,74C 220.905,74.2256 218.405,74.7256 216,75.5C 205,103.167 194,130.833 183,158.5C 182.612,159.428 181.945,160.095 181,160.5C 160.493,153.04 139.326,149.707 117.5,150.5C 96.9148,149.459 77.0815,152.792 58,160.5C 56.5232,159.556 55.5232,158.223 55,156.5C 44.2092,129.256 33.7092,101.923 23.5,74.5 Z"/></g>
<g><path style="opacity:1" fill="#fafaf9" d="M 23.5,74.5 C 14.8416,75.673 11.0082,72.0063 12,63.5C 16.3003,58.5541 20.967,58.2207 26,62.5C 27.112,66.9814 26.2787,70.9814 23.5,74.5 Z"/></g>
<g><path style="opacity:1" fill="#fbfbfb" d="M 104.5,153.5 C 129.425,152.326 153.758,155.493 177.5,163C 178.416,163.374 179.25,163.874 180,164.5C 180.5,172.159 180.666,179.826 180.5,187.5C 151.104,177.995 121.104,175.495 90.5,180C 79.971,181.673 69.8043,184.506 60,188.5C 59.4953,181.124 58.662,173.791 57.5,166.5C 57.6082,165.558 57.9415,164.725 58.5,164C 73.5521,158.666 88.8854,155.166 104.5,153.5 Z"/></g>
<g><path style="opacity:1" fill="#111111" d="M 118.5,161.5 C 121.93,162.714 125.264,164.214 128.5,166C 125.251,167.973 121.917,169.306 118.5,170C 116.004,168.92 113.67,167.586 111.5,166C 114.239,164.974 116.572,163.474 118.5,161.5 Z"/></g>
<g><path style="opacity:1" fill="#0f0f0f" d="M 81.5,166.5 C 84.8426,167.224 88.176,168.057 91.5,169C 88.5871,172.636 84.9204,174.303 80.5,174C 78.5,173.333 76.5,172.667 74.5,172C 77.02,170.303 79.3533,168.47 81.5,166.5 Z"/></g>
<g><path style="opacity:1" fill="#111111" d="M 153.5,166.5 C 157.754,166.725 161.42,168.391 164.5,171.5C 158.303,176.117 152.97,175.283 148.5,169C 150.315,168.243 151.981,167.41 153.5,166.5 Z"/></g>
<g><path style="opacity:1" fill="#f5f5f4" d="M 102.5,181.5 C 129.289,179.432 155.289,182.932 180.5,192C 181.435,194.381 181.768,196.881 181.5,199.5C 140.542,183.273 99.7089,183.607 59,200.5C 58.3333,197.833 58.3333,195.167 59,192.5C 73.1201,186.98 87.6201,183.314 102.5,181.5 Z"/></g>
<g><path style="opacity:1" fill="#fcfcfc" d="M 108.5,191.5 C 132.727,190.174 156.06,194.008 178.5,203C 151.609,214.528 123.609,218.195 94.5,214C 82.8145,211.883 71.4811,208.549 60.5,204C 75.9294,197.31 91.9294,193.143 108.5,191.5 Z"/></g>
</svg>
