<?xml version="1.0" encoding="UTF-8"?>
<!DOCTYPE svg PUBLIC "-//W3C//DTD SVG 1.1//EN" "http://www.w3.org/Graphics/SVG/1.1/DTD/svg11.dtd">
<svg xmlns="http://www.w3.org/2000/svg" version="1.1" width="238px" height="242px" style="shape-rendering:geometricPrecision; text-rendering:geometricPrecision; image-rendering:optimizeQuality; fill-rule:evenodd; clip-rule:evenodd" xmlns:xlink="http://www.w3.org/1999/xlink">
<g><path style="opacity:0.969" fill="#20201e" d="M 237.5,218.5 C 237.5,219.5 237.5,220.5 237.5,221.5C 234.293,220.197 230.96,219.197 227.5,218.5C 217.363,221.627 207.029,223.794 196.5,225C 173.172,235.34 150.172,234.84 127.5,223.5C 139.782,222.096 151.782,219.096 163.5,214.5C 162.82,204.404 161.486,194.404 159.5,184.5C 164.257,177.653 167.924,170.32 170.5,162.5C 186.199,137.552 188.699,111.219 178,83.5C 171.73,66.2437 161.897,51.4104 148.5,39C 142.043,34.8176 135.043,33.6509 127.5,35.5C 126.287,35.7472 125.62,36.4138 125.5,37.5C 122.467,35.3169 119.134,33.6502 115.5,32.5C 120.039,26.3147 119.373,20.8147 113.5,16C 103.498,14.3371 98.9983,18.5038 100,28.5C 100.465,29.9308 101.299,31.0975 102.5,32C 94.2713,35.2169 87.438,40.3835 82,47.5C 67.041,67.7502 58.541,90.4168 56.5,115.5C 56.2508,133.753 60.7508,150.753 70,166.5C 74.2129,172.699 78.3795,178.865 82.5,185C 79.9875,194.738 79.3209,204.572 80.5,214.5C 93.9361,220.073 107.936,223.073 122.5,223.5C 99.4714,234.759 76.138,235.259 52.5,225C 41.7965,223.866 31.2965,221.7 21,218.5C 16.1999,219.071 11.8665,220.738 8,223.5C 7.83333,223.167 7.66667,222.833 7.5,222.5C 16.4868,213.504 27.1534,207.337 39.5,204C 44.5445,203.449 49.5445,203.782 54.5,205C 61.8815,207.405 69.2149,209.905 76.5,212.5C 77.1924,211.975 77.6924,211.308 78,210.5C 78.4754,202.628 79.3087,194.795 80.5,187C 75.7192,178.866 70.8859,170.7 66,162.5C 52.4534,135.756 51.1201,108.423 62,80.5C 67.2994,66.5562 74.6327,53.8896 84,42.5C 88.7381,37.9264 93.9048,33.9264 99.5,30.5C 95.8057,18.7316 100.139,13.2316 112.5,14C 120.566,17.4676 122.566,23.1343 118.5,31C 121.63,32.813 124.63,32.4797 127.5,30C 124.585,20.6575 127.919,15.1575 137.5,13.5C 148.554,15.5731 151.554,21.7398 146.5,32C 158.339,40.1853 167.506,50.6853 174,63.5C 198.061,106.423 194.061,146.423 162,183.5C 163.157,193.123 164.324,202.789 165.5,212.5C 174.2,211.88 182.534,209.713 190.5,206C 200.316,202.351 209.983,202.684 219.5,207C 225.92,210.268 231.92,214.101 237.5,218.5 Z"/></g>
<g><path style="opacity:1" fill="#f8f8f8" d="M 170.5,162.5 C 180.269,117.738 169.269,78.905 137.5,46C 133.898,42.5587 129.898,39.7253 125.5,37.5C 125.62,36.4138 126.287,35.7472 127.5,35.5C 135.043,33.6509 142.043,34.8176 148.5,39C 161.897,51.4104 171.73,66.2437 178,83.5C 188.699,111.219 186.199,137.552 170.5,162.5 Z"/></g>
<g><path style="opacity:1" fill="#f5f5f5" d="M 134.5,18.5 C 140.093,17.4506 143.426,19.6173 144.5,25C 141.838,31.8624 137.672,33.029 132,28.5C 129.701,24.3616 130.535,21.0283 134.5,18.5 Z"/></g>
<g><path style="opacity:1" fill="#010101" d="M 125.5,37.5 C 129.898,39.7253 133.898,42.5587 137.5,46C 169.269,78.905 180.269,117.738 170.5,162.5C 167.924,170.32 164.257,177.653 159.5,184.5C 161.486,194.404 162.82,204.404 163.5,214.5C 151.782,219.096 139.782,222.096 127.5,223.5C 125.833,223.5 124.167,223.5 122.5,223.5C 107.936,223.073 93.9361,220.073 80.5,214.5C 79.3209,204.572 79.9875,194.738 82.5,185C 78.3795,178.865 74.2129,172.699 70,166.5C 60.7508,150.753 56.2508,133.753 56.5,115.5C 58.541,90.4168 67.041,67.7502 82,47.5C 87.438,40.3835 94.2713,35.2169 102.5,32C 101.299,31.0975 100.465,29.9308 100,28.5C 98.9983,18.5038 103.498,14.3371 113.5,16C 119.373,20.8147 120.039,26.3147 115.5,32.5C 119.134,33.6502 122.467,35.3169 125.5,37.5 Z"/></g>
<g><path style="opacity:1" fill="#cdcdcd" d="M 109.5,196.5 C 126.355,195.361 142.688,197.528 158.5,203C 146.331,200.641 133.998,199.141 121.5,198.5C 108.754,198.231 96.4211,200.231 84.5,204.5C 83.1667,203.833 83.1667,203.167 84.5,202.5C 92.7833,199.74 101.117,197.74 109.5,196.5 Z"/></g>
<g><path style="opacity:1" fill="#c9c9c9" d="M 111.5,173.5 C 126.938,172.294 141.604,174.961 155.5,181.5C 155.167,181.833 154.833,182.167 154.5,182.5C 132.135,173.305 109.801,173.305 87.5,182.5C 87.1667,182.167 86.8333,181.833 86.5,181.5C 87.6651,180.416 88.9984,179.583 90.5,179C 97.514,176.705 104.514,174.872 111.5,173.5 Z"/></g>
<g><path style="opacity:1" fill="#d2d2d2" d="M 111.5,161.5 C 122.266,161.19 132.933,162.024 143.5,164C 150.619,166.39 156.953,170.057 162.5,175C 156.463,171.819 150.129,168.819 143.5,166C 128.079,162.422 112.746,162.756 97.5,167C 92.4676,168.598 87.9676,171.098 84,174.5C 83.8374,172.613 84.6707,171.113 86.5,170C 94.5673,166.034 102.901,163.2 111.5,161.5 Z"/></g>
<g><path style="opacity:1" fill="#f2f2f2" d="M 112.5,74.5 C 115.97,75.2876 118.637,77.2876 120.5,80.5C 119.855,81.646 119.022,82.646 118,83.5C 117.5,90.4921 117.334,97.4921 117.5,104.5C 124.841,104.666 132.174,104.5 139.5,104C 140.399,102.764 141.566,101.93 143,101.5C 145.631,102.963 147.798,104.963 149.5,107.5C 147.5,110.167 145.167,112.5 142.5,114.5C 141.354,113.855 140.354,113.022 139.5,112C 132.174,111.5 124.841,111.334 117.5,111.5C 117.334,119.507 117.5,127.507 118,135.5C 119.236,136.399 120.07,137.566 120.5,139C 119,141.833 116.833,144 114,145.5C 111.216,143.72 108.716,141.553 106.5,139C 107.667,137.833 108.833,136.667 110,135.5C 110.5,127.507 110.666,119.507 110.5,111.5C 102.826,111.334 95.1594,111.5 87.5,112C 86.646,113.022 85.646,113.855 84.5,114.5C 82.0163,112.517 79.6829,110.35 77.5,108C 79.7162,105.447 82.2162,103.28 85,101.5C 86.1685,102.009 87.0019,102.842 87.5,104C 95.1594,104.5 102.826,104.666 110.5,104.5C 110.666,97.825 110.5,91.1583 110,84.5C 108.833,83.3333 107.667,82.1667 106.5,81C 108.706,78.9633 110.706,76.7966 112.5,74.5 Z"/></g>
<g><path style="opacity:1" fill="#f7f7f7" d="M 109.5,205.5 C 125.995,204.083 141.995,206.249 157.5,212C 141.24,219.055 124.24,221.389 106.5,219C 99.0255,217.505 91.6921,215.505 84.5,213C 92.5911,209.398 100.924,206.898 109.5,205.5 Z"/></g>
</svg>
