<?xml version="1.0" standalone="no"?>
<!DOCTYPE svg PUBLIC "-//W3C//DTD SVG 20010904//EN"
 "http://www.w3.org/TR/2001/REC-SVG-20010904/DTD/svg10.dtd">
<svg version="1.0" xmlns="http://www.w3.org/2000/svg"
 width="245.000000pt" height="246.000000pt" viewBox="0 0 245.000000 246.000000"
 preserveAspectRatio="xMidYMid meet">

<g transform="translate(0.000000,246.000000) scale(0.100000,-0.100000)"
fill="#000000" stroke="none">
<path d="M1148 2092 c-30 -18 -58 -67 -58 -102 0 -30 25 -75 55 -97 l26 -18
-59 -363 c-32 -199 -62 -365 -65 -368 -18 -18 -44 30 -165 305 l-133 302 21
26 c32 40 28 107 -9 144 -24 24 -38 29 -76 29 -65 0 -105 -39 -105 -102 0 -52
21 -85 64 -103 l31 -13 31 -329 c30 -316 30 -342 3 -343 -4 0 -99 113 -213
251 -163 198 -204 254 -195 265 16 19 15 78 -1 109 -17 33 -58 55 -101 55 -48
0 -99 -56 -99 -108 0 -55 38 -100 90 -108 l38 -6 88 -227 c48 -124 124 -320
169 -436 94 -239 110 -321 100 -502 l-6 -101 83 -32 c247 -96 518 -124 755
-80 133 26 363 88 383 104 8 7 27 17 43 24 23 10 26 16 21 38 -4 14 -7 101 -8
193 l-1 166 126 315 c69 173 146 365 170 427 43 109 44 111 79 117 101 16 127
156 38 202 -47 24 -86 18 -124 -20 -36 -36 -45 -86 -24 -127 10 -17 -16 -53
-195 -269 -113 -138 -209 -250 -213 -250 -28 1 -28 25 2 343 l31 329 31 13
c43 18 64 51 64 103 0 36 -5 49 -31 73 -44 41 -108 41 -150 0 -37 -37 -41
-104 -9 -144 l21 -26 -133 -305 c-101 -232 -137 -305 -150 -306 -10 0 -18 3
-18 8 0 4 -27 168 -59 364 l-59 358 39 39 c44 43 51 88 24 141 -29 56 -112 77
-167 42z m367 -1321 c158 -29 287 -73 268 -92 -5 -5 -47 4 -98 20 -295 94
-708 91 -990 -8 -70 -25 -75 -25 -75 -7 0 26 226 86 395 106 120 13 373 4 500
-19z m-254 -112 c23 -11 39 -22 37 -23 -1 -2 -21 -13 -43 -24 l-40 -20 -45 23
-44 22 39 21 c50 26 48 26 96 1z m-331 -54 c0 -1 -18 -14 -39 -29 -37 -26 -42
-27 -80 -15 -23 7 -41 16 -41 20 0 5 16 19 36 33 35 23 37 24 80 9 24 -8 44
-16 44 -18z m723 -25 c-4 -4 -25 -13 -45 -19 -35 -11 -40 -10 -73 15 -40 30
-39 35 13 50 33 9 41 7 75 -14 21 -14 34 -28 30 -32z m-216 -61 c104 -14 345
-76 361 -93 23 -23 0 -25 -63 -5 -168 53 -286 72 -465 77 -197 5 -345 -14
-534 -69 -64 -18 -104 -25 -110 -19 -6 6 3 15 25 24 50 21 231 64 334 80 110
17 346 20 452 5z m-62 -89 c141 -13 196 -24 327 -66 100 -33 128 -47 114 -61
-3 -3 -54 10 -113 30 -334 111 -723 97 -1065 -38 -12 -5 -18 -2 -18 8 0 28
216 95 375 116 158 21 240 24 380 11z"/>
</g>
</svg>
