<?xml version="1.0" encoding="UTF-8"?>
<!DOCTYPE svg PUBLIC "-//W3C//DTD SVG 1.1//EN" "http://www.w3.org/Graphics/SVG/1.1/DTD/svg11.dtd">
<svg xmlns="http://www.w3.org/2000/svg" version="1.1" width="262px" height="228px" style="shape-rendering:geometricPrecision; text-rendering:geometricPrecision; image-rendering:optimizeQuality; fill-rule:evenodd; clip-rule:evenodd" xmlns:xlink="http://www.w3.org/1999/xlink">
<g><path style="opacity:0.989" fill="#20201e" d="M 74.5,15.5 C 76.5273,15.3379 78.5273,15.5045 80.5,16C 84.6918,21.5192 88.8585,27.0192 93,32.5C 98.4644,27.3662 103.631,21.8662 108.5,16C 111.804,14.9581 113.971,16.1247 115,19.5C 116.373,25.9954 118.206,32.3288 120.5,38.5C 123.751,40.375 126.918,42.375 130,44.5C 134.109,43.0753 138.275,41.742 142.5,40.5C 150.46,44.2825 157.46,49.4491 163.5,56C 168.501,61.0011 174.001,66.5011 180,72.5C 180.833,74.5 181.667,76.5 182.5,78.5C 184.753,79.2531 186.587,80.5864 188,82.5C 191.333,87.1667 194.667,91.8333 198,96.5C 198.595,97.8989 198.428,99.2322 197.5,100.5C 199.815,101.234 201.648,102.568 203,104.5C 206.368,110.375 209.535,116.375 212.5,122.5C 209.606,125.818 210.44,127.818 215,128.5C 218.227,136.181 221.06,144.014 223.5,152C 222.833,153.333 222.167,154.667 221.5,156C 223.085,157.289 224.419,158.789 225.5,160.5C 227.479,167.728 228.812,175.061 229.5,182.5C 230.552,182.351 231.552,182.517 232.5,183C 230.649,184.684 228.982,186.517 227.5,188.5C 228.328,189.415 229.328,190.081 230.5,190.5C 231.996,199.772 232.663,209.105 232.5,218.5C 171.5,218.5 110.5,218.5 49.5,218.5C 51.3321,211.838 54.4987,205.838 59,200.5C 70.4079,190.881 81.9079,181.381 93.5,172C 107.027,159.444 113.194,143.944 112,125.5C 110.2,127.317 108.034,128.484 105.5,129C 99.9438,129.756 94.6105,129.423 89.5,128C 84.0284,135.07 77.3617,140.736 69.5,145C 63.7561,150.073 58.7561,155.74 54.5,162C 48.5351,165.732 43.0351,165.232 38,160.5C 36.9148,161.293 35.7481,161.96 34.5,162.5C 18.5251,156.551 13.3585,145.551 19,129.5C 28.5872,112.66 37.9206,95.6604 47,78.5C 46.2801,70.3775 48.2801,63.0441 53,56.5C 59.0325,50.8021 64.6991,44.8021 70,38.5C 71.5057,30.7919 73.0057,23.1252 74.5,15.5 Z"/></g>
<g><path style="opacity:1" fill="#e6e6e6" d="M 136.5,51.5 C 142.375,55.0288 147.708,59.3622 152.5,64.5C 154.5,63.1667 156.5,61.8333 158.5,60.5C 159.308,60.8076 159.975,61.3076 160.5,62C 158.5,63.6667 156.5,65.3333 154.5,67C 159.167,72.3333 163.833,77.6667 168.5,83C 170.937,82.7965 173.271,81.9632 175.5,80.5C 176.308,80.8076 176.975,81.3076 177.5,82C 175.33,83.5862 172.996,84.9196 170.5,86C 175.005,92.6629 179.672,99.1629 184.5,105.5C 187.282,103.243 190.282,102.577 193.5,103.5C 190.912,105.158 188.245,106.825 185.5,108.5C 189.588,115.676 193.422,123.009 197,130.5C 199.877,128.596 203.044,127.596 206.5,127.5C 206.5,128.5 206.5,129.5 206.5,130.5C 203.207,130.315 200.54,131.482 198.5,134C 201.6,142.468 204.6,150.968 207.5,159.5C 210.404,157.714 213.404,157.381 216.5,158.5C 213.785,160.264 210.785,161.264 207.5,161.5C 209.68,170.733 211.346,180.066 212.5,189.5C 215.807,188.949 219.14,188.616 222.5,188.5C 222.5,189.5 222.5,190.5 222.5,191.5C 219.552,191.223 216.719,191.556 214,192.5C 213.5,199.158 213.334,205.825 213.5,212.5C 212.5,212.5 211.5,212.5 210.5,212.5C 209.32,147.979 184.32,94.8127 135.5,53C 136.056,52.6174 136.389,52.1174 136.5,51.5 Z"/></g>
<g><path style="opacity:1" fill="#eaeae9" d="M 80.5,59.5 C 83.5,59.5 86.5,59.5 89.5,59.5C 88.0239,64.3905 86.8573,69.3905 86,74.5C 80.7886,81.1109 74.7886,82.1109 68,77.5C 67.3315,72.3242 68.8315,67.8242 72.5,64C 75.3911,62.7258 78.0578,61.2258 80.5,59.5 Z"/></g>
<g><path style="opacity:1" fill="#272725" d="M 80.5,62.5 C 82.1238,62.3601 83.2904,63.0267 84,64.5C 85.5287,73.6347 81.6954,78.1347 72.5,78C 69.9787,74.5176 70.1453,71.0176 73,67.5C 75.4795,65.6859 77.9795,64.0192 80.5,62.5 Z"/></g>
<g><path style="opacity:1" fill="#e3e3e3" d="M 119.5,91.5 C 120.5,91.5 121.5,91.5 122.5,91.5C 122.391,99.9917 120.724,108.158 117.5,116C 125.431,112.888 130.431,107.054 132.5,98.5C 133.5,98.5 134.5,98.5 135.5,98.5C 134.404,103.358 132.238,107.691 129,111.5C 125.5,114.333 122,117.167 118.5,120C 120.952,121.959 123.786,122.792 127,122.5C 129.865,122.316 132.698,121.982 135.5,121.5C 135.5,122.5 135.5,123.5 135.5,124.5C 127.465,126.33 119.799,125.33 112.5,121.5C 117.04,112.008 119.373,102.008 119.5,91.5 Z"/></g>
<g><path style="opacity:1" fill="#e5e5e5" d="M 50.5,105.5 C 51.4972,105.47 52.1639,105.97 52.5,107C 52.1377,108.225 51.6377,109.391 51,110.5C 45.9145,115.517 40.9145,120.517 36,125.5C 35.5661,129.548 35.5661,133.548 36,137.5C 32.4172,135.71 28.5839,135.043 24.5,135.5C 24.5,134.5 24.5,133.5 24.5,132.5C 27.1667,132.5 29.8333,132.5 32.5,132.5C 32.0889,128.537 32.9222,124.87 35,121.5C 41.0418,116.959 46.2084,111.626 50.5,105.5 Z"/></g>
</svg>
