<?xml version="1.0" standalone="no"?>
<!DOCTYPE svg PUBLIC "-//W3C//DTD SVG 20010904//EN"
 "http://www.w3.org/TR/2001/REC-SVG-20010904/DTD/svg10.dtd">
<svg version="1.0" xmlns="http://www.w3.org/2000/svg"
 width="202.000000pt" height="232.000000pt" viewBox="0 0 202.000000 232.000000"
 preserveAspectRatio="xMidYMid meet">

<g transform="translate(0.000000,232.000000) scale(0.100000,-0.100000)"
fill="#000000" stroke="none">
<path d="M977 2090 c-180 -46 -299 -210 -284 -394 8 -88 50 -178 112 -235 41
-38 43 -41 22 -45 -187 -35 -220 -46 -244 -83 -13 -19 -12 -23 9 -42 28 -27
96 -47 213 -64 l90 -13 -1 -214 c-1 -237 -16 -356 -60 -491 -26 -78 -27 -79
-68 -89 -97 -25 -205 -73 -265 -119 -47 -35 -91 -107 -91 -148 l0 -33 649 0
c413 0 652 4 656 10 14 23 -21 97 -70 145 -57 57 -136 99 -245 130 -68 20 -77
26 -94 59 -45 91 -74 266 -83 506 -7 209 -2 250 31 250 43 0 195 30 236 46 43
17 64 43 54 68 -9 24 -83 54 -164 67 -111 16 -109 14 -57 67 123 126 142 325
44 468 -41 59 -116 118 -177 139 -56 20 -163 27 -213 15z"/>
</g>
</svg>
