<?xml version="1.0" standalone="no"?>
<!DOCTYPE svg PUBLIC "-//W3C//DTD SVG 20010904//EN"
 "http://www.w3.org/TR/2001/REC-SVG-20010904/DTD/svg10.dtd">
<svg version="1.0" xmlns="http://www.w3.org/2000/svg"
 width="229.000000pt" height="249.000000pt" viewBox="0 0 229.000000 249.000000"
 preserveAspectRatio="xMidYMid meet">

<g transform="translate(0.000000,249.000000) scale(0.100000,-0.100000)"
fill="#000000" stroke="none">
<path d="M850 1840 c0 -285 4 -315 47 -339 14 -7 8 -11 -27 -18 l-44 -8 51
-38 c66 -48 174 -163 208 -221 15 -25 28 -46 30 -46 2 0 21 25 41 56 52 78
121 152 188 199 30 22 56 43 56 46 0 4 -18 9 -41 13 l-40 6 25 31 26 31 0 279
0 279 -260 0 -260 0 0 -270z m480 40 l0 -200 -220 0 -220 0 0 193 c0 107 3
197 7 200 3 4 102 7 220 7 l213 0 0 -200z m-108 -251 c54 -27 78 -63 78 -117
0 -38 -5 -50 -38 -82 -76 -76 -213 -77 -293 0 -34 32 -39 43 -39 82 0 117 162
182 292 117z"/>
<path d="M985 2005 c33 -30 76 -68 95 -84 l35 -29 90 84 90 83 -185 0 -185 1
60 -55z"/>
<path d="M910 1875 l0 -167 90 83 c50 45 90 85 90 89 0 6 -105 102 -157 143
l-23 18 0 -166z"/>
<path d="M1217 1957 l-89 -82 89 -78 88 -77 3 80 c2 44 2 116 0 160 l-3 79
-88 -82z"/>
<path d="M1017 1780 l-87 -80 182 0 c179 0 182 0 163 19 -58 55 -158 141 -164
141 -3 0 -45 -36 -94 -80z"/>
<path d="M1065 1631 c-71 -18 -115 -63 -115 -118 0 -60 84 -123 165 -123 41 0
97 22 130 52 62 53 43 133 -40 176 -29 15 -105 22 -140 13z"/>
<path d="M400 1527 c-169 -38 -269 -158 -278 -336 -6 -101 9 -171 54 -270 43
-94 90 -156 193 -256 104 -102 126 -144 118 -233 -3 -37 -9 -77 -12 -89 -6
-18 0 -24 42 -43 81 -37 243 -87 343 -106 129 -24 380 -25 505 0 114 22 210
50 305 88 102 42 100 39 83 101 -9 33 -12 72 -7 107 6 54 9 58 114 165 129
132 179 201 222 309 30 75 32 90 33 196 0 99 -3 122 -23 164 -34 74 -84 129
-149 164 -145 77 -333 59 -518 -50 -87 -51 -218 -182 -265 -265 -19 -34 -37
-63 -40 -63 -3 0 -16 20 -29 44 -55 104 -179 228 -296 296 -118 68 -288 101
-395 77z m1020 -717 c197 -25 410 -80 410 -107 0 -11 -6 -14 -22 -9 -248 72
-435 99 -688 99 -242 0 -422 -23 -622 -80 -48 -13 -93 -21 -99 -18 -49 31 272
104 561 129 74 6 369 -3 460 -14z m-257 -101 l42 -22 -42 -20 c-41 -20 -43
-20 -83 -2 -22 10 -40 21 -40 24 0 5 53 32 78 40 1 1 22 -9 45 -20z m-412 -41
c22 -6 39 -14 39 -17 0 -7 -67 -51 -77 -51 -5 0 -26 5 -48 11 l-40 11 35 29
c39 33 39 33 91 17z m824 -15 l40 -27 -47 -15 c-45 -14 -48 -13 -82 10 -20 13
-36 27 -36 30 0 6 54 26 75 28 6 1 28 -11 50 -26z m-273 -68 c178 -24 408 -89
408 -116 0 -13 -14 -11 -132 24 -119 36 -223 56 -350 69 -174 18 -411 -14
-612 -82 -54 -18 -88 -25 -92 -18 -10 16 5 24 106 56 231 74 455 96 672 67z
m-1 -106 c101 -13 251 -49 351 -85 79 -28 93 -37 84 -52 -3 -5 -53 7 -118 29
-357 121 -709 116 -1032 -15 -49 -20 -92 -34 -94 -31 -32 31 201 118 404 149
110 17 293 20 405 5z"/>
</g>
</svg>
